<?xml version="1.0" encoding="UTF-8" standalone="no" ?>
<!DOCTYPE svg PUBLIC "-//W3C//DTD SVG 1.1//EN" "http://www.w3.org/Graphics/SVG/1.1/DTD/svg11.dtd">
<svg xmlns="http://www.w3.org/2000/svg" xmlns:xlink="http://www.w3.org/1999/xlink" version="1.1" width="499" height="125" viewBox="1 0.5 499 125" xml:space="preserve">
<desc>Created with Fabric.js 4.6.0</desc>
<defs>
</defs>
<g transform="matrix(1 0 0 0.4 250.09 56.07)" id="rmfgazJG0KTJdrXDe079H"  >
<linearGradient id="SVGID_192" gradientUnits="userSpaceOnUse" gradientTransform="matrix(1 0 0 1 -250 -139.93)"  x1="244.81132075471695" y1="3.4343140984142906" x2="244.81132075471697" y2="241.20391280258025">
<stop offset="0%" style="stop-color:#3C8DBC;stop-opacity: 1"/>
<stop offset="52.58519257634923%" style="stop-color:#0082C8;stop-opacity: 1"/>
<stop offset="100%" style="stop-color:#6D7FC6;stop-opacity: 1"/>
</linearGradient>
<filter id="SVGID_0" y="-27%" height="154%" x="-22%" width="144%" >
	<feGaussianBlur in="SourceAlpha" stdDeviation="5.5"></feGaussianBlur>
	<feOffset dx="0" dy="8" result="oBlur" ></feOffset>
	<feFlood flood-color="rgb(154,154,154)" flood-opacity="1"/>
	<feComposite in2="oBlur" operator="in" />
	<feMerge>
		<feMergeNode></feMergeNode>
		<feMergeNode in="SourceGraphic"></feMergeNode>
	</feMerge>
</filter>
<path style="stroke: rgb(0,0,0); stroke-width: 0; stroke-dasharray: none; stroke-linecap: butt; stroke-dashoffset: 0; stroke-linejoin: miter; stroke-miterlimit: 4; fill: url(#SVGID_192); fill-rule: nonzero; opacity: 1;filter: url(#SVGID_0);" vector-effect="non-scaling-stroke"  transform=" translate(0, 0)" d="M -250 100.07077 C -250 100.07077 -203.27042 75.28567 -117.5343 78.57077 C -31.798180000000002 81.85587 8.393050000000002 128.56965 97.18476000000001 138.57076999999998 C 185.97646000000003 148.57189 250 100.07076999999998 250 100.07076999999998 L 250 -139.92923000000002 L -250 -139.92923000000002 z" stroke-linecap="round" />
</g>
<g transform="matrix(0.69 0 0 0.69 104.47 56.07)" style="" id="s35xqlrLXATaLxnSUgLY-"  >
		<text xml:space="preserve" font-family="sans-serif" font-size="10" font-style="normal" font-weight="700" line-height="0.9" style="stroke: none; stroke-width: 1; stroke-dasharray: none; stroke-linecap: butt; stroke-dashoffset: 0; stroke-linejoin: miter; stroke-miterlimit: 4; fill: rgb(255,255,255); fill-rule: nonzero; opacity: 1; white-space: pre;" ><tspan x="-123.22" y="-1.94" >A framework for data analysis workflow</tspan><tspan x="-123.22" y="8.23" >management and downstream data visualization</tspan></text>
</g>
<g transform="matrix(1.04 0 0 1.04 107.13 32.69)" style="" id="2FxVSqA8nMRQcRNP9P7bc"  >
		<text xmlns="http://www.w3.org/2000/svg" xml:space="preserve" font-family="sans-serif" y="6.28" x="-84.66" font-size="20" font-style="normal" font-weight="700" line-height="1.16" style="stroke: none; stroke-width: 1; stroke-dasharray: none; stroke-linecap: butt; stroke-dashoffset: 0; stroke-linejoin: miter; stroke-miterlimit: 4; fill: rgb(255,255,255); fill-rule: nonzero; opacity: 1;"><tspan style="fill: #BCCFFF">s</tspan><tspan>ystem</tspan><tspan style="fill: #BCCFFF">P</tspan><tspan>ipe</tspan><tspan style="fill: #BCCFFF">S</tspan><tspan>hiny</tspan></text>
</g>
<g transform="matrix(1 0 0 1 361.71 67.53)" id="sps_header_logo">
<g style="" vector-effect="non-scaling-stroke"   >
		<g transform="matrix(0.12 0 0 0.12 0 0)" id="3O8lLkMjkVz4PTLGolcaX"  >
<filter id="SVGID_2" y="-39%" height="178%" x="-41%" width="182%" >
	<feGaussianBlur in="SourceAlpha" stdDeviation="29.5"></feGaussianBlur>
	<feOffset dx="39" dy="44" result="oBlur" ></feOffset>
	<feFlood flood-color="rgb(80,80,80)" flood-opacity="1"/>
	<feComposite in2="oBlur" operator="in" />
	<feMerge>
		<feMergeNode></feMergeNode>
		<feMergeNode in="SourceGraphic"></feMergeNode>
	</feMerge>
</filter>
<path style="stroke: rgb(125,165,215); stroke-width: 4; stroke-dasharray: none; stroke-linecap: butt; stroke-dashoffset: 0; stroke-linejoin: miter; stroke-miterlimit: 4; fill: rgb(255,255,255); fill-rule: nonzero; opacity: 1;filter: url(#SVGID_2);" vector-effect="non-scaling-stroke"  transform=" translate(-244.52, -282.34)" d="M 7.5 145.5 L 7.5 419.19 L 244.52 556.03 L 481.54 419.18999999999994 L 481.54 145.49999999999994 L 244.52 8.65999999999994 z" stroke-linecap="round" />
</g>
		<g transform="matrix(0.07 0 0 0.07 0 0)" id="q1tFa1IHj8Rh9J4f3fspV"  >
<linearGradient id="SVGID_181" gradientUnits="userSpaceOnUse" gradientTransform="matrix(1 0 0 1 0 0)"  x1="169" y1="567.421" x2="631" y2="74.579">
<stop offset="0%" style="stop-color:rgb(92,139,226);stop-opacity: 1"/>
<stop offset="100%" style="stop-color:rgb(111,204,221);stop-opacity: 1"/>
</linearGradient>
<path style="stroke: none; stroke-width: 1; stroke-dasharray: none; stroke-linecap: butt; stroke-dashoffset: 0; stroke-linejoin: miter; stroke-miterlimit: 4; fill: url(#SVGID_181); fill-rule: evenodd; opacity: 0.9;" vector-effect="non-scaling-stroke"  transform=" translate(-400, -321)" d="M 516 38 L 570 38 Q 569.5 108.493 569 179 L 516 179 L 516 161 L 314 159 C 300.77309351390807 163.40044255241372 289.47012963724234 172.2308830810588 282 183.99999999999997 L 170 184 C 180.232 110.82 235.529 63.515 307 51 L 516 54 L 516 38 Z M 169 242 L 282 242 C 303.029 280.736 382.947 270.011 443 270 L 499 271 C 515.032 280.244 537.244 283.685 553 293 C 596.355 318.632 613.737 353.161 631 406 L 518 406 C 497.07 367.063 411.221 377.988 353 378 L 309 377 C 222.934 347.676 194.578 329.252 169 242 Z M 262 452 L 262 477 L 486 479 C 502.007 473.414 507.561 463.152 519 454 L 630 454 C 619.622 527.671 565.266 570.4159999999999 497 587 L 262 584 L 262 604 L 208 604 Q 208.5 528.0070000000001 209 452 L 262 452 Z" stroke-linecap="round" />
</g>
</g>
</g>
</svg>
